<svg width="150" height="150" viewBox="0 0 150 150" fill="none" xmlns="http://www.w3.org/2000/svg">
<path d="M76.5455 61.7812C76.0483 60.053 75.3499 58.526 74.4503 57.2003C73.5507 55.8509 72.4498 54.7145 71.1477 53.7912C69.8693 52.8442 68.4015 52.1222 66.7443 51.625C65.1108 51.1278 63.2997 50.8793 61.3111 50.8793C57.5942 50.8793 54.3272 51.8026 51.5099 53.6491C48.7164 55.4957 46.5384 58.1828 44.9759 61.7102C43.4134 65.214 42.6321 69.4991 42.6321 74.5653C42.6321 79.6316 43.4015 83.9403 44.9403 87.4915C46.4792 91.0426 48.6572 93.7533 51.4744 95.6236C54.2917 97.4702 57.6179 98.3935 61.4531 98.3935C64.9332 98.3935 67.9044 97.7779 70.3665 96.5469C72.8523 95.2921 74.7462 93.5284 76.0483 91.2557C77.3741 88.983 78.0369 86.2959 78.0369 83.1946L81.1619 83.6562H62.4119V72.0795H92.8452V81.2415C92.8452 87.6335 91.4957 93.1259 88.7969 97.7188C86.098 102.288 82.3812 105.815 77.6463 108.301C72.9115 110.763 67.4901 111.994 61.3821 111.994C54.5639 111.994 48.5743 110.491 43.4134 107.484C38.2524 104.454 34.2277 100.157 31.3395 94.5938C28.4749 89.0066 27.0426 82.3778 27.0426 74.7074C27.0426 68.8125 27.8949 63.5568 29.5994 58.9403C31.3277 54.3002 33.7424 50.3703 36.8438 47.1506C39.9451 43.9309 43.5554 41.4806 47.6747 39.7997C51.794 38.1188 56.2566 37.2784 61.0625 37.2784C65.1818 37.2784 69.017 37.8821 72.5682 39.0895C76.1193 40.2732 79.268 41.9541 82.0142 44.1321C84.7841 46.3101 87.045 48.9025 88.7969 51.9091C90.5488 54.892 91.6733 58.1828 92.1705 61.7812H76.5455ZM112.953 111.923C110.61 111.923 108.597 111.095 106.917 109.438C105.259 107.757 104.431 105.744 104.431 103.401C104.431 101.08 105.259 99.0919 106.917 97.4347C108.597 95.7775 110.61 94.9489 112.953 94.9489C115.226 94.9489 117.215 95.7775 118.919 97.4347C120.624 99.0919 121.476 101.08 121.476 103.401C121.476 104.963 121.074 106.395 120.269 107.697C119.488 108.976 118.458 110.006 117.179 110.787C115.901 111.545 114.492 111.923 112.953 111.923Z" fill="#869FD8"/>
</svg>
