<svg width="305" height="150" viewBox="0 0 305 150" fill="none" xmlns="http://www.w3.org/2000/svg">
<path d="M92.5455 61.7812C92.0483 60.053 91.3499 58.526 90.4503 57.2003C89.5507 55.8509 88.4498 54.7145 87.1477 53.7912C85.8693 52.8442 84.4015 52.1222 82.7443 51.625C81.1108 51.1278 79.2997 50.8793 77.3111 50.8793C73.5942 50.8793 70.3272 51.8026 67.5099 53.6491C64.7164 55.4957 62.5384 58.1828 60.9759 61.7102C59.4134 65.214 58.6321 69.4991 58.6321 74.5653C58.6321 79.6316 59.4015 83.9403 60.9403 87.4915C62.4792 91.0426 64.6572 93.7533 67.4744 95.6236C70.2917 97.4702 73.6179 98.3935 77.4531 98.3935C80.9332 98.3935 83.9044 97.7779 86.3665 96.5469C88.8523 95.2921 90.7462 93.5284 92.0483 91.2557C93.3741 88.983 94.0369 86.2959 94.0369 83.1946L97.1619 83.6562H78.4119V72.0795H108.845V81.2415C108.845 87.6335 107.496 93.1259 104.797 97.7188C102.098 102.288 98.3812 105.815 93.6463 108.301C88.9115 110.763 83.4901 111.994 77.3821 111.994C70.5639 111.994 64.5743 110.491 59.4134 107.484C54.2524 104.454 50.2277 100.157 47.3395 94.5938C44.4749 89.0066 43.0426 82.3778 43.0426 74.7074C43.0426 68.8125 43.8949 63.5568 45.5994 58.9403C47.3277 54.3002 49.7424 50.3703 52.8438 47.1506C55.9451 43.9309 59.5554 41.4806 63.6747 39.7997C67.794 38.1188 72.2566 37.2784 77.0625 37.2784C81.1818 37.2784 85.017 37.8821 88.5682 39.0895C92.1193 40.2732 95.268 41.9541 98.0142 44.1321C100.784 46.3101 103.045 48.9025 104.797 51.9091C106.549 54.892 107.673 58.1828 108.17 61.7812H92.5455ZM120.395 111V38.2727H149.515C154.865 38.2727 159.328 39.0658 162.902 40.652C166.477 42.2382 169.164 44.4399 170.963 47.2571C172.763 50.0507 173.662 53.2704 173.662 56.9162C173.662 59.7571 173.094 62.2547 171.958 64.4091C170.821 66.5398 169.259 68.2917 167.27 69.6648C165.305 71.0142 163.056 71.973 160.523 72.5412V73.2514C163.293 73.3698 165.885 74.151 168.3 75.5952C170.739 77.0393 172.715 79.0634 174.23 81.6676C175.746 84.2481 176.503 87.3258 176.503 90.9006C176.503 94.7595 175.544 98.2041 173.627 101.234C171.733 104.241 168.927 106.62 165.211 108.372C161.494 110.124 156.913 111 151.468 111H120.395ZM135.772 98.429H148.307C152.592 98.429 155.717 97.6122 157.682 95.9787C159.647 94.3215 160.63 92.1198 160.63 89.3736C160.63 87.3613 160.144 85.5857 159.174 84.0469C158.203 82.508 156.818 81.3007 155.019 80.4247C153.243 79.5488 151.124 79.1108 148.662 79.1108H135.772V98.429ZM135.772 68.706H147.171C149.278 68.706 151.148 68.339 152.782 67.6051C154.439 66.8475 155.741 65.7822 156.688 64.4091C157.658 63.036 158.144 61.3906 158.144 59.473C158.144 56.8452 157.209 54.7263 155.338 53.1165C153.492 51.5066 150.864 50.7017 147.455 50.7017H135.772V68.706ZM186.509 111V38.2727H201.885V98.3224H233.064V111H186.509ZM251.805 111.923C249.461 111.923 247.449 111.095 245.768 109.438C244.111 107.757 243.282 105.744 243.282 103.401C243.282 101.08 244.111 99.0919 245.768 97.4347C247.449 95.7775 249.461 94.9489 251.805 94.9489C254.078 94.9489 256.066 95.7775 257.771 97.4347C259.475 99.0919 260.328 101.08 260.328 103.401C260.328 104.963 259.925 106.395 259.12 107.697C258.339 108.976 257.309 110.006 256.031 110.787C254.752 111.545 253.344 111.923 251.805 111.923Z" fill="#869FD8"/>
</svg>
