<svg width="240" height="240" viewBox="0 0 240 240" fill="none" xmlns="http://www.w3.org/2000/svg">
<path d="M108 28V12C108 8.8174 109.264 5.76516 111.515 3.51472C113.765 1.26428 116.817 0 120 0C123.183 0 126.235 1.26428 128.485 3.51472C130.736 5.76516 132 8.8174 132 12V28C132 31.1826 130.736 34.2348 128.485 36.4853C126.235 38.7357 123.183 40 120 40C116.817 40 113.765 38.7357 111.515 36.4853C109.264 34.2348 108 31.1826 108 28ZM188 120C188 133.449 184.012 146.596 176.54 157.779C169.068 168.961 158.448 177.677 146.022 182.824C133.597 187.971 119.925 189.317 106.734 186.693C93.5431 184.07 81.4267 177.593 71.9167 168.083C62.4068 158.573 55.9304 146.457 53.3066 133.266C50.6828 120.075 52.0294 106.403 57.1762 93.9775C62.323 81.5521 71.0387 70.932 82.2212 63.4601C93.4038 55.9881 106.551 52 120 52C138.029 52.0185 155.314 59.1887 168.063 71.9372C180.811 84.6857 187.981 101.971 188 120ZM164 120C164 111.298 161.419 102.791 156.585 95.5549C151.75 88.3191 144.878 82.6796 136.838 79.3493C128.798 76.019 119.951 75.1477 111.416 76.8455C102.881 78.5432 95.0408 82.7338 88.8873 88.8873C82.7338 95.0408 78.5432 102.881 76.8455 111.416C75.1477 119.951 76.019 128.798 79.3493 136.838C82.6796 144.878 88.3191 151.75 95.5549 156.585C102.791 161.419 111.298 164 120 164C131.665 163.987 142.849 159.347 151.098 151.098C159.347 142.849 163.987 131.665 164 120ZM43.51 60.49C44.6262 61.6062 45.9514 62.4917 47.4098 63.0958C48.8683 63.6999 50.4314 64.0108 52.01 64.0108C53.5886 64.0108 55.1517 63.6999 56.6102 63.0958C58.0686 62.4917 59.3938 61.6062 60.51 60.49C61.6262 59.3738 62.5117 58.0486 63.1158 56.5902C63.7199 55.1317 64.0308 53.5686 64.0308 51.99C64.0308 50.4114 63.7199 48.8483 63.1158 47.3898C62.5117 45.9314 61.6262 44.6062 60.51 43.49L48.51 31.49C46.2557 29.2357 43.1981 27.9692 40.01 27.9692C36.8219 27.9692 33.7643 29.2357 31.51 31.49C29.2557 33.7443 27.9892 36.8019 27.9892 39.99C27.9892 43.1781 29.2557 46.2357 31.51 48.49L43.51 60.49ZM43.51 179.49L31.51 191.49C30.3938 192.606 29.5083 193.931 28.9042 195.39C28.3001 196.848 27.9892 198.411 27.9892 199.99C27.9892 201.569 28.3001 203.132 28.9042 204.59C29.5083 206.049 30.3938 207.374 31.51 208.49C33.7643 210.744 36.8219 212.011 40.01 212.011C41.5886 212.011 43.1517 211.7 44.6102 211.096C46.0686 210.492 47.3938 209.606 48.51 208.49L60.51 196.49C62.7643 194.236 64.0308 191.178 64.0308 187.99C64.0308 184.802 62.7643 181.744 60.51 179.49C58.2557 177.236 55.1981 175.969 52.01 175.969C48.8219 175.969 45.7643 177.236 43.51 179.49ZM188 64C189.576 64.0012 191.137 63.6919 192.594 63.0896C194.051 62.4874 195.375 61.604 196.49 60.49L208.49 48.49C209.606 47.3738 210.492 46.0486 211.096 44.5902C211.7 43.1317 212.011 41.5686 212.011 39.99C212.011 38.4114 211.7 36.8483 211.096 35.3898C210.492 33.9314 209.606 32.6062 208.49 31.49C207.374 30.3738 206.049 29.4883 204.59 28.8842C203.132 28.2801 201.569 27.9692 199.99 27.9692C198.411 27.9692 196.848 28.2801 195.39 28.8842C193.931 29.4883 192.606 30.3738 191.49 31.49L179.49 43.49C177.802 45.1684 176.651 47.311 176.184 49.6453C175.717 51.9796 175.954 54.4001 176.867 56.599C177.779 58.7978 179.325 60.6756 181.307 61.9935C183.29 63.3114 185.619 64.0098 188 64ZM196.49 179.51C194.236 177.256 191.178 175.989 187.99 175.989C184.802 175.989 181.744 177.256 179.49 179.51C177.236 181.764 175.969 184.822 175.969 188.01C175.969 191.198 177.236 194.256 179.49 196.51L191.49 208.51C193.744 210.764 196.802 212.031 199.99 212.031C203.178 212.031 206.236 210.764 208.49 208.51C210.744 206.256 212.011 203.198 212.011 200.01C212.011 196.822 210.744 193.764 208.49 191.51L196.49 179.51ZM40 120C40 116.817 38.7357 113.765 36.4853 111.515C34.2348 109.264 31.1826 108 28 108H12C8.8174 108 5.76516 109.264 3.51472 111.515C1.26428 113.765 0 116.817 0 120C0 123.183 1.26428 126.235 3.51472 128.485C5.76516 130.736 8.8174 132 12 132H28C31.1826 132 34.2348 130.736 36.4853 128.485C38.7357 126.235 40 123.183 40 120ZM120 200C116.817 200 113.765 201.264 111.515 203.515C109.264 205.765 108 208.817 108 212V228C108 231.183 109.264 234.235 111.515 236.485C113.765 238.736 116.817 240 120 240C123.183 240 126.235 238.736 128.485 236.485C130.736 234.235 132 231.183 132 228V212C132 208.817 130.736 205.765 128.485 203.515C126.235 201.264 123.183 200 120 200ZM228 108H212C208.817 108 205.765 109.264 203.515 111.515C201.264 113.765 200 116.817 200 120C200 123.183 201.264 126.235 203.515 128.485C205.765 130.736 208.817 132 212 132H228C231.183 132 234.235 130.736 236.485 128.485C238.736 126.235 240 123.183 240 120C240 116.817 238.736 113.765 236.485 111.515C234.235 109.264 231.183 108 228 108Z" fill="#919DD2"/>
</svg>
